<svg xmlns="http://www.w3.org/2000/svg" w="128" h="128" viewBox="0 0 472.67 281.41">
<path d="M300.19,317.54c-14.78,6.25-28.78,10.27-43.34,11.72-65.59,6.54-116.41-20.51-157.28-69.79a205.31,205.31,0,0,1-14.84-21.23c-1.7-2.66-2-4.82-.19-7.7,29.53-48.11,70.66-80.37,126.77-91.11,43-8.22,82.43,2.35,118.62,26,26.08,17,46.09,39.92,62.21,66.39,1.34,2.21,1.19,3.79-.07,5.87a209.65,209.65,0,0,1-53.64,59.07c-2.52,1.89-4.05,1.92-6.16-.5a138.73,138.73,0,0,0-10.44-10.7c-2.46-2.26-2-3.36.55-5.13,16.57-11.48,30-26.12,42.34-41.94,1.94-2.49,2.45-4.47.34-7.4a183,183,0,0,0-76.58-61.91,9.07,9.07,0,0,0-1.61-.35c-.09,1.55,1.1,2,1.86,2.62,30.34,25.56,39.7,67.95,18.12,103.41-2.63,4.31-1.59,6.29,1.56,9.3,13.21,12.65,26.15,25.56,39.22,38.36,3.37,3.3,4.95,7.2,3.31,11.74s-5.13,6.85-9.71,7.66-7.62-1.71-10.5-4.58c-7.52-7.52-15-15.11-22.45-22.68-5.6-5.68-11.27-11.3-16.73-17.11-3.54-3.78-5.1.21-7.19,1.64-3.12,2.14,0,3.35,1.1,4.45C290.05,308.14,294.82,312.49,300.19,317.54Z" transform="translate(-0.93 -95.52)" fill="#3352ec"/>
<path d="M373.3,361c0-4.31-1.58-9.71.43-12.64,2.18-3.19,7.92-.74,12.09-1,11.29-.67,16.47-5.41,18.2-17.14,1.64-11.21,2-22.5,2.28-33.79A179.82,179.82,0,0,1,410,264.36a47.4,47.4,0,0,1,14.64-26c1.33-1.21,2.71-1.93.6-3.71C411.46,223,408.6,206.89,407,190.24c-1.4-15.05-.82-30.23-2.77-45.25-2-15.49-7.57-20.43-23.15-20.54-8.83-.06-8.8-.06-8.55-9.09.14-5.31.15-10.63.26-16,0-1.57-.48-3.61,2.15-3.6,9.77.07,19.65-1.36,29.24,1.56,20,6.11,30.94,20.07,32.78,42.81,1.36,16.71,2,33.49,3,50.23a82.07,82.07,0,0,0,1.21,10.38c2.32,12.37,8.73,23.23,26.41,23.17,5.4,0,6.3,1.86,5.82,6.68a98,98,0,0,0,.17,14.93c.15,2.89-.5,4-3.74,4.13-19.14.59-26.8,8-29.1,27.28-2.18,18.17-1.61,36.51-3.66,54.68-1.76,15.66-6.92,29.45-21.41,37.94-9.56,5.6-20.06,6.39-30.83,6.16-11.79-.25-11.79-.14-11.75-11.72v-3Z" transform="translate(-0.93 -95.52)" fill="#3352ec"/>
<path d="M1.21,250.34c-.09-3-.19-5.93-.28-8.89q.22-8.32.44-16.65c1.83,0,3.66-.08,5.48-.09C21,224.63,29.22,218.06,32,204.15c2.22-11.28,2.29-22.79,2.94-34.22.76-13.09.56-26.28,3.67-39.12,4.9-20.2,19.13-32.23,39.87-33.66,6.11-.43,12.28,0,18.43-.14,2.67-.07,3.4,1,3.4,3.55,0,7.14,0,14.29.34,21.42.13,3-1.08,3.68-3.78,3.52a84.52,84.52,0,0,0-9.94,0c-8.38.51-13.82,5-16,13.17-2.15,7.91-2.39,16.07-2.84,24.19-.67,11.78-1.1,23.57-2.09,35.31-1.21,14.32-6,27.19-16.79,37.28-1,.93-3.21,1.78-.73,3.73C58.89,247.43,63,259,65.15,271.58c2,12,2.44,24.12,2.78,36.24a187.35,187.35,0,0,0,2,22.81c1.91,12.64,7.73,17.76,20.67,18.37,3.37.16,7.85-1.86,9.81.87,1.59,2.22.41,6.42.45,9.74,0,.83.06,1.67,0,2.49-.33,4.59,2,10.79-1,13.33-2.87,2.38-8.85,1.2-13.47,1.29C58,377.25,40.76,362.26,37,334.11c-1.16-8.75-1.41-17.55-1.78-26.33-.41-10-.67-19.92-1.87-29.83C31,258.28,23.27,251.11,3.69,250.48,2.86,250.46,2,250.39,1.21,250.34Z" transform="translate(-0.93 -95.52)" fill="#3352ec"/>
<path d="M237.55,301.46c-37,.05-67.58-30.44-67.75-67.55s30.53-68.26,67.58-68.29a68.47,68.47,0,0,1,68.75,68.68C306.17,271.12,275.23,301.42,237.55,301.46Z" transform="translate(-0.93 -95.52)" fill="#fefefe"/>
<path d="M187.71,170.75c-18.54,15.55-29,35.42-30.05,59.54-1.22,27.45,10.15,49.55,31,67,.25.94,0,1.4-1,1.05-30.09-13.12-55.81-31.78-75.17-58.7-2.58-3.59-3.06-6-.33-9.88a171.53,171.53,0,0,1,74.48-60.21C187.63,169.3,187.92,169.78,187.71,170.75Z" transform="translate(-0.93 -95.52)" fill="#fefefe"/>
<path d="M187.71,170.75l-1.15-1.15c.8-.5,1.57-1,2.4-1.46a14.63,14.63,0,0,1,2.4-.6A6.39,6.39,0,0,1,187.71,170.75Z" transform="translate(-0.93 -95.52)" fill="#b7c2f8"/>
<path d="M187.58,298.39l1-1.05c.92.41,2.67.86,2.05,1.8C189.91,300.3,188.49,299.32,187.58,298.39Z" transform="translate(-0.93 -95.52)" fill="#bdc7f8"/>
<path d="M267.64,183.17c-10.51,3.28-15.32,9.39-14,17.78,1.15,7.34,6.88,12.19,14.66,12.42,8.35.24,12.82-4.42,14.91-15.56,16.71,11.3,17.81,49.44,2.05,70.95-19,26-58.43,31.49-83.57,11.67-26.59-21-30.14-59.63-7.85-85.6C212.25,173.38,250.48,167.34,267.64,183.17Z" transform="translate(-0.93 -95.52)" fill="#3352ec"/>
<path d="M250.88,252.5c-4-2.49-7-4-9.56-6s-4.47-1.78-7,.07c-2.41,1.74-5,5.28-8,3.37-1.5-.94.51-4.78,1.17-7.2,1.1-4.06.2-6.91-3.38-9.21a16.65,16.65,0,0,1-5.67-5.2c3.07-1.75,6.43-1.11,9.52-1.31s4.78-1.13,5.77-4.13a95.6,95.6,0,0,1,4.17-9.28c2.49,3,3.28,6.3,4.36,9.38.88,2.48,2.16,3.69,5,3.69a95.18,95.18,0,0,1,10.7,1.12c-.09.67,0,1.09-.18,1.27-3.1,3.18-8.51,5-9.41,9.11C247.47,242.14,249.72,246.78,250.88,252.5Z" transform="translate(-0.93 -95.52)" fill="#fdfdfe"/></svg>