<svg xmlns="http://www.w3.org/2000/svg" viewBox="0 0 485.25 485.25"><path d="M237.63,480.18q-119.79,0-239.56.07c-2.57,0-3.07-.5-3.07-3.07Q-4.88,237.63-5-1.93C-5-4.5-4.5-5-1.94-5q239.57.12,479.12,0c2.57,0,3.07.5,3.07,3.07q-.12,239.55,0,479.11c0,2.57-.5,3.07-3.07,3.07Q357.41,480.12,237.63,480.18ZM279.9,126.6c.81.31,1.64.58,2.44.93a162.48,162.48,0,0,1,65.62,53c2.47,3.36,2.76,5.65.05,9-10.94,13.57-22.57,26.39-37,36.34-2.28,1.57-2.4,2.55-.4,4.42,3.37,3.16,6.62,6.46,9.68,9.92,1.65,1.86,2.84,1.72,4.67.36a185.35,185.35,0,0,0,48.24-53.21,3.74,3.74,0,0,0,0-4.43c-16.81-27.93-38.47-51.13-67.32-66.62-29.16-15.65-60.31-22.35-93.25-15.84-49.57,9.8-86.07,38.16-112.2,80.83-1.64,2.66-1.4,4.67.14,7.16A177.69,177.69,0,0,0,126,221.29c36.29,36.13,79.13,54.39,131,47.44a133,133,0,0,0,30.28-8.11c3.75-1.45,3.74-1.61.83-4.57-3.42-3.46-6.87-6.9-10.37-10.28-1.29-1.24-1.75-2.07-.09-3.54,3.84-3.41,4-3.49,7.67.27,11.28,11.5,22.49,23.06,33.9,34.43,5,5,10.61,4.82,15.16.15,4-4.1,3.69-9.36-1.14-14.18q-15.9-15.87-32-31.55c-6.08-5.91-6.18-5.81-2.11-13.4.41-.77.86-1.52,1.24-2.31,9.22-19,10.09-38.34,2.06-58-5-12.19-13-22.07-23-30.45ZM356,298.71h0c0,3.25.1,6.5,0,9.75-.09,2.05.47,2.91,2.68,2.87,5.73-.09,11.48.24,17.21,0,16.73-.72,29.9-11.1,34.68-27.14,2-6.87,2.68-13.95,3.12-21.06.79-12.59,1-25.2,2.2-37.77,1.69-18.16,8.52-25,26.49-25.73,2.05-.08,2.87-.57,2.78-2.77-.17-4.49-.15-9-.11-13.48.06-6.45.1-6.45-6.41-6.76-11.51-.54-18.55-6.29-21.35-17.39-2.34-9.29-2.13-18.83-2.85-28.27-.87-11.45-.29-23-2.39-34.35-3.12-16.91-12.48-28.27-29.4-32.72-8.21-2.16-16.62-1.09-24.95-1.13-1.85,0-1.83,1.24-1.83,2.56,0,6.74,0,13.49-.12,20.23-.05,2.22.74,2.72,2.8,2.65a55.79,55.79,0,0,1,12.31.6A13.9,13.9,0,0,1,381.75,98a34.57,34.57,0,0,1,1.93,8c1.61,11.91,1.25,23.94,2.16,35.89,1.25,16.47,2.83,32.83,16.7,44.55,1.59,1.34.45,2-.51,2.84a40.6,40.6,0,0,0-12.91,21.88,147.71,147.71,0,0,0-3.45,27.82c-.39,10.6-.63,21.21-2.07,31.75s-5.86,15-16.45,15.58a44.79,44.79,0,0,1-8.19-.13c-2.53-.32-3,.72-3,2.86C356.08,292.22,356,295.47,356,298.71ZM66.72,187.85C78.48,178.15,83,165.3,84.08,151c.78-9.95,1.08-19.94,1.63-29.91.38-6.73.61-13.48,2.2-20.08,2-8.56,7.16-12.76,15.88-13a76.09,76.09,0,0,1,7.85.07c2.29.17,3-.56,3-2.9q-.36-9.74-.27-19.48c0-2.19-.83-2.81-2.82-2.8-4.61,0-9.23-.25-13.84-.12-20.52.59-33.88,11.55-38.39,31.61-2.43,10.77-2.31,21.81-2.9,32.77-.5,9.35-.83,18.71-2.09,28-2,14.49-9.51,21.18-24,21.21a7,7,0,0,1-1.12,0c-2.47-.39-3.25.66-3.2,3.12.13,5.24.2,10.5-.14,15.73-.21,3.13.72,4,3.8,4,19.45.15,23.32,10.93,25.11,22.46a179.8,179.8,0,0,1,1.7,22.39c.31,11,.52,22,2.31,32.84,3,18.08,13.41,29.49,30.82,33.37,7.63,1.7,15.39.91,23.11.81,2,0,2.11-1.17,2.1-2.71,0-6.37-.13-12.75,0-19.11.06-2.48-.92-2.94-3.09-2.77a60,60,0,0,1-7.1.05c-10.06-.39-15.08-4.67-16.94-14.55-.6-3.18-1-6.4-1.33-9.63-1.27-14.3-.73-28.72-3-42.94C81.5,207.22,77.59,196,66.72,187.85Zm159.77,226c2.77-.18,4.54-.17,6.26-.42,6.51-1,12.28-3.34,16-9.23,6.09-9.76,2.51-21.32-8-25.95-6.1-2.69-12.73-3.49-19-5.46-2.76-.87-5.17-2.44-5-5.74s2.76-4.8,5.78-5.4c4.7-.93,9.12.19,13.55,1.71,2.64.9,5,4.33,7.49,3,2.17-1.18,3-4.73,4.6-7.08,1.33-1.92,1-3.11-.93-4.25a35.6,35.6,0,0,0-10-4.18c-8.37-2-16.75-3-24.77,1.35-6.82,3.72-10,9.63-9.57,17.3s4.5,12.49,11.67,14.85c1.54.51,3.07,1.05,4.63,1.5,4.42,1.28,8.92,2.34,13.28,3.84,3,1.05,5,3.21,4.56,6.84s-3.1,4.63-6.07,5.05a27.76,27.76,0,0,1-17.72-3.15c-2.32-1.28-4.38-4.83-6.59-3.82s-3.15,4.59-4.91,6.84c-1.59,2-.85,3.21.91,4.47A40.68,40.68,0,0,0,226.49,413.82Zm213.75-20.11v.1c5,0,10,0,15,0,1.5,0,2.54-.06,2.66-2.1,1.24-21-16.06-31.59-33.21-25.56-10.51,3.7-15.1,12.37-15.26,23.12-.15,9.72,3.84,17.81,12.94,21.87,9.85,4.4,19.77,4,28.45-3.31,5.86-4.9,5.61-5.2-1.41-8.07-2.8-1.14-4.59-1.29-7.09,1.06-5.58,5.23-16.24,2.35-18.52-4.52-.66-2-.34-2.7,1.87-2.64C430.51,393.79,435.38,393.71,440.24,393.71Zm-152.77.11h14.58c1.19,0,2.41.31,2.84-1.53,2.24-9.49-4.68-22.64-14.18-26-9.17-3.25-18.14-2.43-25.66,4.09s-9.31,15.24-7.5,24.59c1.75,9,7.11,15.5,16.21,17.75,9.38,2.33,18.4,1.61,25.5-6.15,3.9-4.27,3.81-4.23-1.7-6.25-3.09-1.14-5.39-1.64-8.5,1-5.58,4.77-15.33,1.64-17.92-5-.78-2-.47-2.63,1.75-2.57C277.74,393.92,282.61,393.83,287.47,393.82ZM114.06,413.64c14.63,0,24.82-9.84,24.88-24.09.06-14.63-10.2-24.85-25-24.89-14.21,0-24.25,10.14-24.35,24.68S99.24,413.62,114.06,413.64Zm46.12-41.17c-1.25-7.07-1.25-7.07-8.17-7a9.39,9.39,0,0,1-1.5,0c-2.62-.37-3.4.74-3.38,3.36.12,11.36,0,22.73,0,34.1,0,10,0,9.91,9.88,9.87,2.44,0,3.23-.68,3.2-3.12-.11-7.5-.12-15,.06-22.49.15-6.34,4.72-11,10.41-11,5.31,0,8.14,3.5,8.35,10.64.15,5.37,0,10.75.2,16.11.1,3.2-1.49,7.54.69,9.27s6.19.53,9.41.63c.25,0,.5,0,.75,0,1.58.18,2.26-.46,2.25-2.1-.08-11,.61-22-.48-33-.79-8-6.76-12.92-14.64-13.21C170.33,364.31,164.84,366.82,160.18,372.47Zm165.44-.31c-1.5-6.84-1.5-6.84-8.85-6.77a8.37,8.37,0,0,1-1.12,0c-2.72-.43-3.29.87-3.26,3.39.13,11.37.07,22.74.09,34.11,0,10.2,0,10.13,10.26,9.9,2.19,0,2.75-.76,2.72-2.81-.11-7-.08-14,0-21a22.21,22.21,0,0,1,.42-4.83c1.23-5.34,5.55-8.3,11.13-7.78,4.62.43,6.82,3.33,6.9,9.41.09,5.62,0,11.25,0,16.87,0,10.59,0,10.59,10.69,10h.37c1.56.15,2.28-.49,2.26-2.12-.08-11,.57-22-.56-33-.89-8.68-6.23-12.87-14.94-13C335.08,364.47,330.11,367.6,325.62,372.16Zm59.16,41.58a35.78,35.78,0,0,0,4.31-.29c5.56-.91,10.74-2.6,13.49-8.15,4.21-8.5.24-17.15-9.22-20-3.93-1.2-7.94-2.12-11.89-3.24-2.12-.6-3.58-1.86-3.21-4.33s2.22-3.08,4.35-3.29c3.32-.33,6.38.62,9.47,1.68,2.27.77,4.48,3.66,6.52,2.35,1.79-1.16,2.32-4.26,3.41-6.5a3.3,3.3,0,0,1,.18-.32c.74-1.25.17-2-.87-2.78-6.09-4.71-21.82-5.73-28.35-1.68-5.15,3.2-7.42,8-6.94,14s4.07,9.19,9.35,10.9c3.9,1.27,7.89,2.28,11.84,3.42,2.43.7,4.67,1.82,4.21,4.8s-2.87,3.44-5.4,3.57c-4,.21-7.59-1.08-11.14-2.71-6.33-2.93-6.19-2.83-9.7,3.3-1.21,2.11-.73,2.94,1,4.08C371.59,412,377.48,413.66,384.78,413.74ZM65.27,364.63c-16.12,0-26.35,11-25.21,27.06.74,10.38,7.06,18.34,16.76,21.11,10.6,3,21.07-.2,26.77-8.23,2.54-3.57,2.54-3.56-1.76-4.94a48.79,48.79,0,0,1-4.94-1.71c-2-.91-3.32-.72-5,1.14a10.28,10.28,0,0,1-17.41-3.32,17,17,0,0,1,.21-13.15c2.81-6.59,11.12-9.38,15.58-4.5,3.47,3.79,6.13,2.73,9.56,1.23a12.22,12.22,0,0,1,2.81-1c3.28-.6,2.83-2.24,1.44-4.4C79.65,367.07,73.17,364.43,65.27,364.63ZM19,389.06h.08v13.85c0,10.47,0,10.42,10.5,9.91,1.74-.08,2.39-.5,2.39-2.32,0-11.85.28-23.7.1-35.55-.14-9.6-.36-9.52-10.14-9.43-2.3,0-3,.69-3,3C19,375.34,19,382.2,19,389.06Zm6.66-29.85c6.58,0,6.58,0,6.62-6.5,0-6,0-6-6.55-6.19s-6.63-.16-6.63,6.26S19.08,359.22,25.63,359.21Z" transform="translate(5 5)" fill="#fdfefe"/><path d="M279.4,127.19c10,8.38,18,18.26,23,30.45,8,19.66,7.16,39-2.06,58-.38.79-.83,1.54-1.24,2.31-4.07,7.59-4,7.49,2.11,13.4q16.11,15.66,32,31.55c4.83,4.82,5.14,10.08,1.14,14.18-4.55,4.67-10.18,4.81-15.16-.15-11.41-11.37-22.62-22.93-33.9-34.43-3.69-3.76-3.83-3.68-7.67-.27-1.66,1.47-1.2,2.3.09,3.54,3.5,3.38,6.95,6.82,10.37,10.28,2.91,3,2.92,3.12-.83,4.57A133,133,0,0,1,257,268.73c-51.83,6.95-94.67-11.31-131-47.44a177.69,177.69,0,0,1-25.42-32.78c-1.54-2.49-1.78-4.5-.14-7.16,26.13-42.67,62.63-71,112.2-80.83,32.94-6.51,64.09.19,93.25,15.84,28.85,15.49,50.51,38.69,67.32,66.62a3.74,3.74,0,0,1,0,4.43A185.35,185.35,0,0,1,325,240.62c-1.83,1.36-3,1.5-4.67-.36-3.06-3.46-6.31-6.76-9.68-9.92-2-1.87-1.88-2.85.4-4.42,14.43-9.95,26.06-22.77,37-36.34,2.71-3.36,2.42-5.65-.05-9a162.48,162.48,0,0,0-65.62-53c-.8-.35-1.63-.62-2.44-.93a1.2,1.2,0,0,0-1.61,0Zm-43.08-3.32A60.32,60.32,0,0,0,176,184c0,36.31,29.74,60.33,59.59,60.53,33.29.21,61-26.74,61.12-59C296.81,151.23,270.08,123.94,236.32,123.87Zm-42.5,118.47c-18-14.92-28.6-33.66-28.75-57.26-.14-23.43,9.6-42.62,27.76-57.55a2.07,2.07,0,0,0-2.21-.21c-27.55,12.18-50.29,30.19-67.07,55.47-1.44,2.17-.85,3.48.4,5.24,11.82,16.55,26.07,30.44,43.51,41.05A174.73,174.73,0,0,0,193.82,242.34Z" transform="translate(5 5)" fill="#3554ec"/><path d="M356,298.71c0-3.24.06-6.49,0-9.74-.06-2.14.43-3.18,3-2.86a44.79,44.79,0,0,0,8.19.13c10.59-.57,15-4.93,16.45-15.58s1.68-21.15,2.07-31.75a147.71,147.71,0,0,1,3.45-27.82A40.6,40.6,0,0,1,402,189.21c1-.85,2.1-1.5.51-2.84-13.87-11.72-15.45-28.08-16.7-44.55-.91-11.95-.55-24-2.16-35.89a34.57,34.57,0,0,0-1.93-8A13.9,13.9,0,0,0,370.8,88.8a55.79,55.79,0,0,0-12.31-.6c-2.06.07-2.85-.43-2.8-2.65.16-6.74.11-13.49.12-20.23,0-1.32,0-2.56,1.83-2.56,8.33,0,16.74-1,24.95,1.13,16.92,4.45,26.28,15.81,29.4,32.72,2.1,11.35,1.52,22.9,2.39,34.35.72,9.44.51,19,2.85,28.27,2.8,11.1,9.84,16.85,21.35,17.39,6.51.31,6.47.31,6.41,6.76,0,4.49-.06,9,.11,13.48.09,2.2-.73,2.69-2.78,2.77-18,.7-24.8,7.57-26.49,25.73-1.17,12.57-1.41,25.18-2.2,37.77-.44,7.11-1.08,14.19-3.12,21.06-4.78,16-17.95,26.42-34.68,27.14-5.73.24-11.48-.09-17.21,0-2.21,0-2.77-.82-2.68-2.87.14-3.25,0-6.5,0-9.75Z" transform="translate(5 5)" fill="#3453ec"/><path d="M66.72,187.85C77.59,196,81.5,207.22,83.41,219.49c2.23,14.22,1.69,28.64,3,42.94.28,3.23.73,6.45,1.33,9.63,1.86,9.88,6.88,14.16,16.94,14.55a60,60,0,0,0,7.1-.05c2.17-.17,3.15.29,3.09,2.77-.17,6.36-.08,12.74,0,19.11,0,1.54-.14,2.68-2.1,2.71-7.72.1-15.48.89-23.11-.81C72.17,306.46,61.74,295.05,58.76,277c-1.79-10.88-2-21.86-2.31-32.84a179.8,179.8,0,0,0-1.7-22.39c-1.79-11.53-5.66-22.31-25.11-22.46-3.08,0-4-.89-3.8-4,.34-5.23.27-10.49.14-15.73-.05-2.46.73-3.51,3.2-3.12a7,7,0,0,0,1.12,0c14.47,0,22-6.72,24-21.21,1.26-9.29,1.59-18.65,2.09-28,.59-11,.47-22,2.9-32.77,4.51-20.06,17.87-31,38.39-31.61,4.61-.13,9.23.13,13.84.12,2,0,2.84.61,2.82,2.8q-.07,9.73.27,19.48c.08,2.34-.66,3.07-3,2.9a76.09,76.09,0,0,0-7.85-.07c-8.72.23-13.83,4.43-15.88,13-1.59,6.6-1.82,13.35-2.2,20.08-.55,10-.85,20-1.63,29.91C83,165.3,78.48,178.15,66.72,187.85Z" transform="translate(5 5)" fill="#3553ec"/><path d="M226.49,413.82a40.68,40.68,0,0,1-23.83-7.94c-1.76-1.26-2.5-2.42-.91-4.47,1.76-2.25,2.7-5.83,4.91-6.84s4.27,2.54,6.59,3.82A27.76,27.76,0,0,0,231,401.54c3-.42,5.6-1.48,6.07-5.05s-1.52-5.79-4.56-6.84c-4.36-1.5-8.86-2.56-13.28-3.84-1.56-.45-3.09-1-4.63-1.5-7.17-2.36-11.24-7.3-11.67-14.85s2.75-13.58,9.57-17.3c8-4.37,16.4-3.38,24.77-1.35a35.6,35.6,0,0,1,10,4.18c1.89,1.14,2.26,2.33.93,4.25-1.63,2.35-2.43,5.9-4.6,7.08-2.44,1.34-4.85-2.09-7.49-3-4.43-1.52-8.85-2.64-13.55-1.71-3,.6-5.59,2-5.78,5.4s2.22,4.87,5,5.74c6.29,2,12.92,2.77,19,5.46,10.5,4.63,14.08,16.19,8,25.95-3.68,5.89-9.45,8.24-16,9.23C231,413.65,229.26,413.64,226.49,413.82Z" transform="translate(5 5)" fill="#3654ec"/><path d="M440.24,393.71c-4.86,0-9.73.08-14.59,0-2.21-.06-2.53.65-1.87,2.64,2.28,6.87,12.94,9.75,18.52,4.52,2.5-2.35,4.29-2.2,7.09-1.06,7,2.87,7.27,3.17,1.41,8.07-8.68,7.27-18.6,7.71-28.45,3.31-9.1-4.06-13.09-12.15-12.94-21.87.16-10.75,4.75-19.42,15.26-23.12,17.15-6,34.45,4.59,33.21,25.56-.12,2-1.16,2.11-2.66,2.1-5,0-10,0-15,0Zm-6.48-8.7v0c2.75,0,5.5-.15,8.23,0,2.51.17,2.68-1,2.19-2.94a10.3,10.3,0,0,0-10-7.48c-5.17.06-9.93,3.69-10.81,8.19-.3,1.56,0,2.32,1.82,2.25C428,384.92,430.89,385,433.76,385Z" transform="translate(5 5)" fill="#3756ec"/><path d="M287.47,393.83c-4.86,0-9.73.09-14.58,0-2.22-.06-2.53.57-1.75,2.57,2.59,6.61,12.34,9.74,17.92,5,3.11-2.66,5.41-2.16,8.5-1,5.51,2,5.6,2,1.7,6.25-7.1,7.76-16.12,8.48-25.5,6.15-9.1-2.25-14.46-8.73-16.21-17.75-1.81-9.35.05-18.13,7.5-24.59s16.49-7.34,25.66-4.09c9.5,3.36,16.42,16.51,14.18,26-.43,1.84-1.65,1.52-2.84,1.53ZM281.1,385v0c3,0,6,0,9,0,1.69,0,2.17-.57,1.76-2.27a11.14,11.14,0,0,0-10.44-8.17,10.72,10.72,0,0,0-10.63,7.82c-.53,2,0,2.72,2.11,2.6C275.61,384.85,278.36,385,281.1,385Z" transform="translate(5 5)" fill="#3755ec"/><path d="M114.06,413.64c-14.82,0-24.53-9.67-24.44-24.3S99.76,364.62,114,364.66c14.77,0,25,10.26,25,24.89C138.88,403.8,128.69,413.66,114.06,413.64Zm-11.28-23.81c0,7.95,4.55,13.05,11.36,12.89,6.52-.17,11.81-6.17,11.85-13.46,0-7.47-5.42-13.43-12.21-13.31C107.25,376.06,102.72,381.77,102.78,389.83Z" transform="translate(5 5)" fill="#3654ec"/><path d="M160.18,372.47c4.66-5.65,10.15-8.16,17-7.91,7.88.29,13.85,5.23,14.64,13.21,1.09,11,.4,22,.48,33,0,1.64-.67,2.28-2.25,2.1-.25,0-.5,0-.75,0-3.22-.1-7.37,1-9.41-.63s-.59-6.07-.69-9.27c-.17-5.36-.05-10.74-.2-16.11-.21-7.14-3-10.66-8.35-10.64-5.69,0-10.26,4.69-10.41,11-.18,7.49-.17,15-.06,22.49,0,2.44-.76,3.11-3.2,3.12-9.91,0-9.9.13-9.88-9.87,0-11.37.11-22.74,0-34.1,0-2.62.76-3.73,3.38-3.36a9.39,9.39,0,0,0,1.5,0C158.93,365.4,158.93,365.4,160.18,372.47Z" transform="translate(5 5)" fill="#3755ec"/><path d="M325.62,372.16c4.49-4.56,9.46-7.69,16.06-7.59,8.71.15,14.05,4.34,14.94,13,1.13,11,.48,22,.56,33,0,1.63-.7,2.27-2.26,2.12h-.37c-10.7.58-10.7.58-10.69-10,0-5.62.09-11.25,0-16.87-.08-6.08-2.28-9-6.9-9.41-5.58-.52-9.9,2.44-11.13,7.78a22.21,22.21,0,0,0-.42,4.83c0,7-.06,14,0,21,0,2-.53,2.77-2.72,2.81-10.23.23-10.24.3-10.26-9.9,0-11.37,0-22.74-.09-34.11,0-2.52.54-3.82,3.26-3.39a8.37,8.37,0,0,0,1.12,0C324.12,365.32,324.12,365.32,325.62,372.16Z" transform="translate(5 5)" fill="#3655ec"/><path d="M384.78,413.74c-7.3-.08-13.19-1.74-18.58-5.26-1.74-1.14-2.22-2-1-4.08,3.51-6.13,3.37-6.23,9.7-3.3,3.55,1.63,7.15,2.92,11.14,2.71,2.53-.13,5-.69,5.4-3.57s-1.78-4.1-4.21-4.8c-4-1.14-7.94-2.15-11.84-3.42-5.28-1.71-8.89-5-9.35-10.9s1.79-10.76,6.94-14c6.53-4.05,22.26-3,28.35,1.68,1,.8,1.61,1.53.87,2.78a3.3,3.3,0,0,0-.18.32c-1.09,2.24-1.62,5.34-3.41,6.5-2,1.31-4.25-1.58-6.52-2.35-3.09-1.06-6.15-2-9.47-1.68-2.13.21-4,.84-4.35,3.29s1.09,3.73,3.21,4.33c3.95,1.12,8,2,11.89,3.24,9.46,2.88,13.43,11.53,9.22,20-2.75,5.55-7.93,7.24-13.49,8.15A35.78,35.78,0,0,1,384.78,413.74Z" transform="translate(5 5)" fill="#3755ec"/><path d="M65.27,364.63c7.9-.2,14.38,2.44,18.82,9.3,1.39,2.16,1.84,3.8-1.44,4.4a12.22,12.22,0,0,0-2.81,1c-3.43,1.5-6.09,2.56-9.56-1.23-4.46-4.88-12.77-2.09-15.58,4.5a17,17,0,0,0-.21,13.15,10.28,10.28,0,0,0,17.41,3.32c1.67-1.86,3-2.05,5-1.14a48.79,48.79,0,0,0,4.94,1.71c4.3,1.38,4.3,1.37,1.76,4.94-5.7,8-16.17,11.25-26.77,8.23-9.7-2.77-16-10.73-16.76-21.11C38.92,375.63,49.15,364.65,65.27,364.63Z" transform="translate(5 5)" fill="#3655ec"/><path d="M19,389.06c0-6.86.07-13.72,0-20.58,0-2.27.68-2.94,3-3,9.78-.09,10-.17,10.14,9.43.18,11.85-.1,23.7-.1,35.55,0,1.82-.65,2.24-2.39,2.32-10.5.51-10.5.56-10.5-9.91V389.06Z" transform="translate(5 5)" fill="#3554ec"/><path d="M25.63,359.21c-6.55,0-6.55,0-6.56-6.43s0-6.42,6.63-6.26,6.58.16,6.55,6.19C32.21,359.2,32.21,359.2,25.63,359.21Z" transform="translate(5 5)" fill="#3f5ced"/><path d="M236.32,123.87c33.76.07,60.49,27.36,60.41,61.68-.08,32.28-27.83,59.23-61.12,59C205.76,244.37,176,220.35,176,184A60.32,60.32,0,0,1,236.32,123.87Zm26.32,15.66c-12.94-13.58-47.18-8.6-64,8.53-20.45,20.79-18.33,59,4.87,77.4,19,15,55.36,16.43,74.72-10,14-19.07,12.92-53.62-1.87-63.29-1.63,10.11-5.28,14-13,14-7-.07-12.16-4.37-13.06-10.95C249.21,147.36,253.29,142.19,262.64,139.53Z" transform="translate(5 5)" fill="#f9fafe"/><path d="M193.82,242.34a174.73,174.73,0,0,1-26.36-13.26C150,218.47,135.77,204.58,124,188c-1.25-1.76-1.84-3.07-.4-5.24,16.78-25.28,39.52-43.29,67.07-55.47a2.07,2.07,0,0,1,2.21.21c-18.16,14.93-27.9,34.12-27.76,57.55C165.22,208.68,175.85,227.42,193.82,242.34Z" transform="translate(5 5)" fill="#fbfcfe"/><path d="M279.4,127.19l-1.11-.62a1.2,1.2,0,0,1,1.61,0C279.73,126.8,279.57,127,279.4,127.19Z" transform="translate(5 5)" fill="#fdfefe"/><path d="M433.76,385c-2.87,0-5.74-.09-8.6,0-1.82.07-2.12-.69-1.82-2.25.88-4.5,5.64-8.13,10.81-8.19a10.3,10.3,0,0,1,10,7.48c.49,1.93.32,3.11-2.19,2.94-2.73-.19-5.48,0-8.23,0Z" transform="translate(5 5)" fill="#f9fafe"/><path d="M281.1,385c-2.74,0-5.49-.12-8.22,0-2.13.12-2.64-.63-2.11-2.6a10.72,10.72,0,0,1,10.63-7.82,11.14,11.14,0,0,1,10.44,8.17c.41,1.7-.07,2.3-1.76,2.27-3,0-6,0-9,0Z" transform="translate(5 5)" fill="#f8f9fd"/><path d="M102.78,389.83c-.06-8.06,4.47-13.77,11-13.88,6.79-.12,12.25,5.84,12.21,13.31,0,7.29-5.33,13.29-11.85,13.46C107.33,402.88,102.83,397.78,102.78,389.83Z" transform="translate(5 5)" fill="#fafbfe"/><path d="M262.64,139.53c-9.35,2.66-13.43,7.83-12.36,15.69.9,6.58,6,10.88,13.06,10.95,7.71.07,11.36-3.85,13-14,14.79,9.67,15.85,44.22,1.87,63.29-19.36,26.39-55.72,25-74.72,10-23.2-18.37-25.32-56.61-4.87-77.4C215.46,130.93,249.7,126,262.64,139.53Zm-37.23,60.6a25.4,25.4,0,0,0,8.1-4.59,3.9,3.9,0,0,1,5.35-.12c2.61,1.84,5.4,3.44,8.89,5.64-.8-4.14-1.22-7.47-2.15-10.64-.62-2.08-.06-3.22,1.48-4.43,2.55-2,5-4.18,8.07-6.8-4.09-.47-7.17-1.17-10.22-1.07s-4.2-1.26-5-3.78-1.51-5.37-3.57-7.61c-.41.54-.74.8-.82,1.13-2,7.68-6.13,12.35-14.82,10.9-.53-.09-1.31-.14-1.59.62s.35,1.14.79,1.52c1.7,1.46,3.37,3,5.18,4.27,2.06,1.48,2.8,3.16,2.1,5.72C226.41,193.74,226.05,196.7,225.41,200.13Z" transform="translate(5 5)" fill="#3553ec"/><path d="M225.41,200.13c.64-3.43,1-6.39,1.77-9.24.7-2.56,0-4.24-2.1-5.72-1.81-1.3-3.48-2.81-5.18-4.27-.44-.38-1.06-.77-.79-1.52s1.06-.71,1.59-.62c8.69,1.45,12.85-3.22,14.82-10.9.08-.33.41-.59.82-1.13,2.06,2.24,2.72,5,3.57,7.61s2,3.88,5,3.78,6.13.6,10.22,1.07c-3.1,2.62-5.52,4.79-8.07,6.8-1.54,1.21-2.1,2.35-1.48,4.43.93,3.17,1.35,6.5,2.15,10.64-3.49-2.2-6.28-3.8-8.89-5.64a3.9,3.9,0,0,0-5.35.12A25.4,25.4,0,0,1,225.41,200.13Z" transform="translate(5 5)" fill="#f8f9fd"/></svg>